<svg width="1000" height="190" viewBox="0 0 1000 190" xmlns="http://www.w3.org/2000/svg" xmlns:xlink="http://www.w3.org/1999/xlink"><linearGradient id="a" x1="50%" x2="50%" y1="100%" y2="0%"><stop offset="0" stop-color="#af687c"/><stop offset=".355124854" stop-color="#a15892"/><stop offset="1" stop-color="#5678b6"/></linearGradient><path d="m819.064755 121.142107 16.560402-22.1740974c1.159764-1.5529037 1.039342-3.7138443-.28578-5.1282741l-27.340432-29.1830511c-.250335-.2672065-.507843-.5274544-.772237-.7804526-8.020822-7.6751175-20.6794-7.3256969-28.273727.7804526l-87.795547 93.7125646c-18.905971 20.180147-45.324282 31.630751-72.977023 31.630751h-592.541559c-8.9151874 0-12.1480498-.938131-15.407309-2.699745-3.25925929-1.761615-5.81714504-4.346712-7.56021596-7.640644-1.74307093-3.293932-2.67132704-6.561187-2.67132704-15.571217v-138.1767883c0-9.0100298.92825611-12.2772843 2.67132704-15.5712165 1.74307092-3.29393226 4.30095667-5.87902956 7.56021596-7.64064379 3.2592592-1.76161423 6.4921216-2.69974541 15.407309-2.69974541h948.722296c8.915187 0 12.14805.93813118 15.407309 2.69974541s5.817145 4.34671153 7.560216 7.64064379c1.743071 3.2939322 2.671327 6.5611867 2.671327 15.5712165v56.9021732c0 2.7614238-2.238576 5-5 5-1.382637 0-2.703553-.5725302-3.648851-1.5815375l-53.352204-56.9478974c-.250335-.2672066-.507843-.5274544-.772237-.7804527-8.020822-7.6751174-20.6794-7.3256968-28.273727.7804527l-87.334075 93.98777c-2.976657-.492715-3.063193-1.448407-2.554151-2.130007zm-726.334828 14.153513c6.7489389 0 12.566034-1.007289 17.45146-3.021897 4.885426-2.014609 8.562031-4.784654 11.029927-8.310219 2.467895-3.525565 3.701825-7.453993 3.701825-11.785402 0-5.842365-1.989396-10.626988-5.968248-14.3540144-3.978852-3.7270259-10.752872-6.5978002-20.3222633-8.6124088-6.1445562-1.3094956-10.7780865-2.5937893-13.9007299-3.8529197-3.1226433-1.2591304-5.2379507-2.6189708-6.3459854-4.079562-1.1080347-1.4605913-1.6620438-3.2485296-1.6620438-5.3638686 0-3.4248347 1.309476-6.1696977 3.9284672-8.2346716 2.6189912-2.0649738 6.3963257-3.0974452 11.3321168-3.0974452 3.3241042 0 6.0941495.3777334 8.3102194 1.1332117 2.216069.7554782 3.903278 1.6620385 5.061678 2.719708s2.593787 2.5434211 4.306205 4.4572993c.604382 1.1080347 1.611672 1.6620438 3.021898 1.6620438h5.741605c.906574 0 1.687223-.3021868 2.341971-.9065694s.982117-1.3598495.982117-2.2664233c0-1.9138782-1.1332-4.2810078-3.399635-7.1014599s-5.640854-5.2883106-10.123358-7.4036496c-4.482504-2.1153391-9.8966833-3.1729927-16.2427004-3.1729927-6.0438259 0-11.2565475 1.0828358-15.6383212 3.2485401s-7.6806459 4.986114-9.8967153 8.4613139c-2.2160695 3.4751998-3.3240876 7.0762587-3.3240876 10.8032846 0 5.7416346 1.8131205 10.4255294 5.439416 14.0518249s9.8211241 6.3963408 18.5846716 8.3102189c6.4467475 1.4102261 11.3069179 2.719702 14.5806569 3.928467s5.615686 2.568606 7.025912 4.079562c1.410226 1.510957 2.115329 3.525535 2.115329 6.043796 0 3.827756-1.636845 6.748895-4.910584 8.763504-3.273739 2.014608-7.6302648 3.021897-13.0697081 3.021897-4.8350607 0-8.6879419-.805831-11.5587591-2.417518-2.8708173-1.611687-5.464587-3.827723-7.7813869-6.648175-.6043826-.705113-1.0828449-1.158393-1.4354014-1.359854-.3525566-.201461-.8310189-.30219-1.4354015-.30219h-6.3459854c-.8058435 0-1.5613104.277005-2.2664234.831022s-1.0576642 1.334666-1.0576642 2.341971c0 1.913878 1.1583826 4.331372 3.4751825 7.252555 2.3167999 2.921182 5.8674943 5.514952 10.6521898 7.781386 4.7846954 2.266435 10.652155 3.399635 17.6025547 3.399635zm48.241241-1.510948h6.950365c1.007304 0 1.838318-.327369 2.493066-.982117.654747-.654748.982116-1.485762.982116-2.493066v-41.8532846c0-7.1518606 1.91385-12.7674979 5.741606-16.8470803 3.827757-4.0795825 8.964931-6.1193431 15.411679-6.1193431 6.648208 0 11.735019 2.0145784 15.260584 6.0437956 3.525565 4.0292173 5.288321 9.6700368 5.288321 16.9226278v41.8532846c0 1.007304.327369 1.838318.982117 2.493066s1.485761.982117 2.493066.982117h7.101459c1.007305 0 1.838318-.327369 2.493066-.982117s.982117-1.485762.982117-2.493066v-42.759854c0-10.1737735-2.694499-18.3579982-8.083577-24.5529197s-12.918565-9.2923357-22.588686-9.2923357c-5.842365 0-10.7529.9821069-14.731752 2.9463503s-7.428817 4.8098354-10.35 8.5368613v-24.7124087c0-1.1080348-.302186-1.9642306-.906569-2.5686132-.604383-.6043825-1.460578-.9065693-2.568613-.9065693h-6.950365c-1.007304 0-1.838318.3021868-2.493066.9065693-.654748.6043826-.982117 1.4605784-.982117 2.5686132v89.8343065c0 1.007304.327369 1.838318.982117 2.493066s1.485762.982117 2.493066.982117zm113.967518 1.510948c6.446748 0 12.163114-1.1332 17.14927-3.399635 4.986157-2.266434 8.839038-4.960933 11.558759-8.083576 2.719722-3.122644 4.079562-5.79196 4.079562-8.008029 0-.805844-.327369-1.460582-.982116-1.964234-.654748-.503652-1.435397-.755474-2.341971-.755474h-6.648175c-1.208766 0-2.064961.125911-2.568614.377737-.503652.251826-1.208754.982111-2.115328 2.190876-1.510956 2.014608-3.752175 3.95364-6.723723 5.817153-2.971547 1.863513-6.824429 2.795255-11.558759 2.795255-6.144556 0-11.080273-2.316765-14.807299-6.950365-3.727026-4.633599-5.741604-10.224054-6.043796-16.771532v-1.3598544h52.429927c1.007305 0 1.838318-.327369 2.493066-.9821168s.982117-1.4857614.982117-2.4930657v-2.719708c0-12.0876517-3.04705-21.6568991-9.141241-28.7080292s-14.681331-10.5766423-25.761679-10.5766423c-10.274504 0-18.483911 3.2233254-24.628467 9.670073-6.144556 6.4467475-9.518975 15.1094346-10.123358 25.9883211l-.151095 4.9861314.151095 5.1372263c.604383 11.0803476 3.978802 19.8185816 10.123358 26.2149636s14.353963 9.594525 24.628467 9.594525zm21.153285-46.3861309h-42.155475v-.4532847c0-7.0511302 1.863485-12.7926786 5.590511-17.2248175 3.727026-4.432139 8.864201-6.6481752 15.411679-6.6481752 6.446748 0 11.583923 2.2160362 15.411679 6.6481752 3.827756 4.4321389 5.741606 10.1736873 5.741606 17.2248175zm30.412044 44.8751829h6.79927c1.007304 0 1.8635-.327369 2.568613-.982117s1.057664-1.485762 1.057664-2.493066v-44.5729926c0-5.5401737 1.586481-9.9218817 4.759489-13.1452555 3.173009-3.2233738 7.529534-4.8350365 13.069708-4.8350365h8.612409c1.108035 0 1.96423-.327369 2.568613-.9821168s.906569-1.4857614.906569-2.4930657v-5.590511c0-1.1080347-.302186-1.9642305-.906569-2.5686131s-1.460578-.9065693-2.568613-.9065693h-5.892701c-9.871582 0-16.872242 3.4247832-21.00219 10.2744525v-6.6481752c0-1.1080347-.327369-1.9894127-.982116-2.6441605-.654748-.6547478-1.536126-.9821168-2.644161-.9821168h-6.345985c-1.007305 0-1.838318.3525512-2.493066 1.0576642s-.982117 1.5613088-.982117 2.5686131v71.4678832c0 1.007304.327369 1.838318.982117 2.493066s1.485761.982117 2.493066.982117zm51.716423 18.215328h6.79927c1.007304 0 1.838318-.327369 2.493066-.982117s.982117-1.485761.982117-2.493065v-24.712409c5.540173 7.655512 13.699216 11.483211 24.477372 11.483211 10.576695 0 18.509097-3.374418 23.797445-10.123357s8.083575-15.260533 8.385766-25.5350367c.100731-1.1080348.151095-2.8204264.151095-5.1372263s-.050364-4.0291915-.151095-5.1372263c-.302191-10.3752343-3.097418-18.9120103-8.385766-25.6105839-5.288348-6.6985737-13.22075-10.0478102-23.797445-10.0478102-10.778156 0-19.088292 3.8780634-24.930657 11.6343065v-6.6481752c0-1.1080347-.302187-1.9642305-.90657-2.5686131-.604382-.6043826-1.460578-.9065693-2.568613-.9065693h-6.345985c-1.007304 0-1.838318.3021867-2.493066.9065693s-.982117 1.4605784-.982117 2.5686131v89.8343071c0 1.108034.327369 1.96423.982117 2.568613.654748.604382 1.485762.906569 2.493066.906569zm31.881022-28.489781c-6.849669 0-12.112755-2.241218-15.789416-6.723723-3.676661-4.482504-5.615693-9.795954-5.817153-15.940511-.100731-1.1080343-.151095-3.0722483-.151095-5.8927003 0-2.8204521.050364-4.784666.151095-5.8927008.20146-6.3460171 2.090128-11.8609254 5.666058-16.5448905 3.57593-4.683965 8.889381-7.0259124 15.940511-7.0259124 14.303721 0 21.455474 9.6699763 21.455474 29.010219 0 1.9138782-.050364 3.3744475-.151095 4.3817518-.302191 7.3533212-2.115311 13.2963282-5.439416 17.8291972-3.324104 4.532869-8.612372 6.79927-15.864963 6.79927zm70.754379 11.785401c6.648209 0 12.087571-1.108018 16.318249-3.324087 4.230678-2.21607 7.454003-4.986115 9.670073-8.310219v6.648175c0 1.007304.302186 1.838318.906569 2.493066s1.410214.982117 2.417518.982117h6.648175c1.007305 0 1.838318-.327369 2.493066-.982117s.982117-1.485762.982117-2.493066v-49.1058394c0-7.8569736-2.442676-14.4043533-7.328102-19.6423357s-12.968922-7.8569343-24.25073-7.8569343c-6.547478 0-12.087569 1.1332003-16.620438 3.399635-4.53287 2.2664347-7.882106 4.9357511-10.04781 8.0080292-2.165705 3.0722781-3.248541 5.7667767-3.248541 8.0835766 0 .9065739.327369 1.687223.982117 2.3419708s1.435397.9821168 2.341971.9821168h5.892701c.805843 0 1.435399-.1762756 1.888686-.5288321s.881385-1.0324767 1.284306-2.039781c1.309496-2.5182608 3.374439-4.7091148 6.194891-6.5726277 2.820452-1.863513 6.547422-2.7952555 11.181022-2.7952555 11.986921 0 17.980292 5.1875393 17.980292 15.5627737v4.3817518l-22.664234 3.1729927c-9.36793 1.4102261-16.771505 4.2306358-22.210949 8.4613139-5.439443 4.2306782-8.159124 9.6700402-8.159124 16.3182482 0 4.230678 1.23393 8.083559 3.701825 11.558759 2.467896 3.4752 5.79195 6.220063 9.972263 8.234672 4.180313 2.014608 8.738296 3.021897 13.674087 3.021897zm3.021898-11.029927c-4.6336 0-8.637574-1.108018-12.012044-3.324087-3.374469-2.21607-5.061678-5.389031-5.061678-9.518978 0-3.626296 1.863485-6.648163 5.590511-9.065694 3.727025-2.41753 9.216752-4.1299217 16.469343-5.137226l17.678102-2.5686131v4.2306569c0 8.2598952-2.115308 14.5554532-6.345986 18.8868612-4.230678 4.331409-9.670039 6.49708-16.318248 6.49708z" fill="url(#a)"/></svg>